<?xml version="1.0" standalone="no"?>
<!DOCTYPE svg PUBLIC "-//W3C//DTD SVG 20010904//EN"
 "http://www.w3.org/TR/2001/REC-SVG-20010904/DTD/svg10.dtd">
<svg version="1.0" xmlns="http://www.w3.org/2000/svg"
 width="612.000000pt" height="376.000000pt" viewBox="0 0 612.000000 376.000000"
 preserveAspectRatio="xMidYMid meet">

<g transform="translate(0.000000,376.000000) scale(0.100000,-0.100000)"
fill="#000000" stroke="none">
<path d="M3110 3339 c-25 -5 -77 -25 -117 -44 -261 -129 -317 -491 -108 -700
237 -237 647 -129 737 193 43 156 5 303 -108 422 -107 112 -252 158 -404 129z"/>
<path d="M1751 2523 c-71 -37 -100 -124 -66 -196 23 -49 254 -289 378 -391
273 -228 485 -284 622 -164 70 62 84 149 34 212 -43 54 -128 73 -190 41 -27
-14 -33 -14 -72 3 -62 28 -205 136 -185 140 9 2 66 -4 127 -12 62 -9 116 -16
121 -16 6 0 10 -13 10 -29 l0 -30 53 5 c64 7 126 -22 171 -79 41 -52 49 -143
17 -205 -25 -49 -84 -95 -153 -120 -46 -16 -48 -18 -42 -46 19 -88 110 -272
183 -373 17 -24 31 -47 31 -51 0 -5 -102 -87 -227 -182 -299 -228 -332 -256
-354 -304 -41 -90 -7 -221 70 -271 80 -52 63 -53 747 45 346 50 663 95 704
101 128 17 183 49 225 132 45 91 25 189 -52 256 -75 67 -102 68 -413 23 -146
-22 -266 -38 -268 -37 -4 3 193 154 210 160 12 5 507 99 1623 310 253 47 479
93 503 102 188 67 199 321 17 404 -51 24 -99 24 -221 -1 -54 -11 -517 -99
-1029 -196 -648 -123 -934 -173 -945 -167 -8 6 -38 44 -67 86 -66 97 -97 192
-97 302 l-1 80 30 -2 c17 -1 120 -10 230 -19 288 -26 852 -27 945 -1 130 36
198 100 208 197 5 60 -10 101 -50 135 -57 48 -145 45 -200 -7 -18 -17 -49 -35
-68 -39 -57 -14 -440 -10 -660 6 -412 31 -1010 99 -1500 170 -330 49 -357 51
-399 28z"/>
<path d="M950 1184 c-294 -57 -536 -103 -537 -104 -2 0 -3 -4 -3 -10 0 -5 9
-10 19 -10 38 0 1064 199 1073 208 6 6 4 11 -4 14 -7 2 -254 -42 -548 -98z"/>
<path d="M1655 1224 c-181 -35 -419 -80 -527 -100 -198 -38 -229 -46 -215 -60
8 -8 1074 190 1085 201 24 24 -55 14 -343 -41z"/>
<path d="M1951 1186 c-336 -64 -536 -106 -539 -114 -6 -20 -70 -31 842 143
132 25 242 47 245 50 24 25 -82 9 -548 -79z"/>
</g>
</svg>
